<svg width="51" height="56" viewBox="0 0 51 56" fill="none" xmlns="http://www.w3.org/2000/svg">
<path d="M50.0391 46.4407L45.7255 39.8749C43.7369 36.8444 42.6848 33.3756 42.6848 29.8403V24.0888C42.6848 15.2357 34.7984 8.02979 25.1092 8.02979C15.42 8.02979 7.53357 15.2357 7.53357 24.0888V29.8403C7.53357 33.3756 6.4815 36.8444 4.49294 39.8749L0.179324 46.4407C-0.0541813 46.794 -0.0592419 47.2369 0.161788 47.5947C0.385289 47.9549 0.804516 48.1775 1.25646 48.1775H48.9618C49.4138 48.1775 49.8331 47.955 50.0565 47.5947C50.2775 47.2367 50.2726 46.794 50.0391 46.4407ZM3.47359 45.8833L6.64474 41.054C8.86928 37.6679 10.0443 33.7908 10.0443 29.8403V24.0888C10.0443 16.4975 16.8009 10.3239 25.1092 10.3239C33.4175 10.3239 40.1741 16.4975 40.1741 24.0888V29.8403C40.1741 33.7908 41.3491 37.6679 43.5712 41.054L46.7448 45.8833H3.47359Z" fill="#003B7E"/>
<path d="M25.1095 0C22.34 0 20.0878 2.05786 20.0878 4.58836V9.17672C20.0878 9.8098 20.6503 10.3237 21.3433 10.3237C22.0363 10.3237 22.5987 9.8098 22.5987 9.17661V4.58836C22.5987 3.32198 23.7235 2.29423 25.1095 2.29423C26.4955 2.29423 27.6203 3.32198 27.6203 4.58836V9.17672C27.6203 9.8098 28.1827 10.3237 28.8757 10.3237C29.5687 10.3237 30.1312 9.8098 30.1312 9.17661V4.58836C30.1312 2.05786 27.879 0 25.1095 0Z" fill="#003B7E"/>
<path d="M30.5436 46.45C30.1896 45.9041 29.4237 45.7251 28.8237 46.0393C28.2236 46.3606 28.0228 47.0648 28.3742 47.6108C28.7006 48.1179 28.8789 48.7258 28.8789 49.3246C28.8789 51.2219 27.1892 52.7658 25.1127 52.7658C23.0362 52.7658 21.3465 51.2219 21.3465 49.3246C21.3465 48.7258 21.5248 48.1179 21.8512 47.6108C22.2001 47.0625 21.9993 46.3605 21.4017 46.0393C20.7966 45.725 20.0333 45.904 19.6818 46.45C19.1269 47.3172 18.8331 48.3106 18.8331 49.3247C18.8332 52.4883 21.6478 55.0601 25.1102 55.0601C28.5727 55.0601 31.3872 52.4883 31.3923 49.3247C31.3923 48.3106 31.0985 47.3172 30.5436 46.45Z" fill="#003B7E"/>
</svg>
