<svg width="62" height="55" viewBox="0 0 62 55" fill="none" xmlns="http://www.w3.org/2000/svg">
<path d="M61 12.4195H45C44.7348 12.4195 44.4804 12.513 44.2929 12.6793C44.1054 12.8457 44 13.0713 44 13.3066V19.5164H39C38.7348 19.5164 38.4804 19.6098 38.2929 19.7762C38.1054 19.9426 38 20.1682 38 20.4035V33.3739L31.941 31.3061C31.9754 31.2235 31.9953 31.1367 32 31.0488V15.9679H39C39.2652 15.9679 39.5196 15.8745 39.7071 15.7081C39.8946 15.5418 40 15.3161 40 15.0808V0.887108C40 0.651833 39.8946 0.426193 39.7071 0.259828C39.5196 0.0934629 39.2652 0 39 0H23C22.7348 0 22.4804 0.0934629 22.2929 0.259828C22.1054 0.426193 22 0.651833 22 0.887108V15.0808C22 15.3161 22.1054 15.5418 22.2929 15.7081C22.4804 15.8745 22.7348 15.9679 23 15.9679H30V31.0488C30.0047 31.1367 30.0246 31.2235 30.059 31.3061L24 33.3739V20.4035C24 20.1682 23.8946 19.9426 23.7071 19.7762C23.5196 19.6098 23.2652 19.5164 23 19.5164H18V13.3066C18 13.0713 17.8946 12.8457 17.7071 12.6793C17.5196 12.513 17.2652 12.4195 17 12.4195H1C0.734784 12.4195 0.48043 12.513 0.292893 12.6793C0.105357 12.8457 0 13.0713 0 13.3066V27.5004C0 27.7356 0.105357 27.9613 0.292893 28.1276C0.48043 28.294 0.734784 28.3875 1 28.3875H17C17.2652 28.3875 17.5196 28.294 17.7071 28.1276C17.8946 27.9613 18 27.7356 18 27.5004V21.2906H22V33.7101C22.0016 33.8203 22.0264 33.9291 22.073 34.0312L17.641 35.5393C17.5595 35.5724 17.4809 35.611 17.406 35.6547C17.2796 35.7374 17.177 35.8455 17.1065 35.97C17.0359 36.0945 16.9994 36.2321 17 36.3714V50.5652C17 50.7549 17.0685 50.9397 17.1956 51.0923C17.3227 51.245 17.5015 51.3575 17.706 51.4132L30.688 54.9564L30.704 54.9608C30.8956 55.0131 31.1004 55.0131 31.292 54.9608L31.308 54.9564L44.29 51.4132C44.4952 51.3581 44.675 51.2459 44.8028 51.0932C44.9307 50.9405 44.9998 50.7554 45 50.5652V36.3714C44.9993 36.2333 44.9622 36.0972 44.8917 35.9739C44.8213 35.8507 44.7193 35.7438 44.594 35.6618C44.5191 35.6181 44.4405 35.5795 44.359 35.5464L39.927 34.0383C39.9746 33.934 39.9994 33.8226 40 33.7101V21.2906H44V27.5004C44 27.7356 44.1054 27.9613 44.2929 28.1276C44.4804 28.294 44.7348 28.3875 45 28.3875H61C61.2652 28.3875 61.5196 28.294 61.7071 28.1276C61.8946 27.9613 62 27.7356 62 27.5004V13.3066C62 13.0713 61.8946 12.8457 61.7071 12.6793C61.5196 12.513 61.2652 12.4195 61 12.4195ZM24 14.1937V1.77422H38V14.1937H24ZM16 26.6132H2V14.1937H16V26.6132ZM30 52.9125L19 49.9096V37.5726L30 40.5754V52.9125ZM43 49.9096L32 52.9125V40.5754L43 37.5726V49.9096ZM31 38.992L21.059 36.2827L31 32.886L40.941 36.2827L31 38.992ZM60 26.6132H46V14.1937H60V26.6132Z" fill="#003B7E"/>
</svg>
