<svg width="70" height="76" viewBox="0 0 70 76" fill="none" xmlns="http://www.w3.org/2000/svg">
<path d="M36.12 25.8H54.488V27.928C53.704 28.3387 52.8267 28.6933 51.856 28.992C50.9227 29.2533 50.008 29.44 49.112 29.552V61.36H59.92L63.672 51.336H65.968C66.1173 52.1947 66.248 53.2027 66.36 54.36C66.5093 55.5173 66.6213 56.7307 66.696 58C66.7707 59.2693 66.8267 60.52 66.864 61.752C66.9013 62.984 66.9013 64.0667 66.864 65H36.12V62.872C36.9787 62.424 37.7813 62.0693 38.528 61.808C39.312 61.5467 40.04 61.36 40.712 61.248V29.552C38.8827 29.2533 37.352 28.712 36.12 27.928V25.8Z" fill="white"/>
<rect x="1" y="1" width="68" height="50" stroke="white" stroke-width="2"/>
</svg>
