<svg width="49" height="56" viewBox="0 0 49 56" fill="none" xmlns="http://www.w3.org/2000/svg">
<path d="M48.7829 43.5929C48.7984 43.5758 48.8138 43.5587 48.8278 43.5407C48.8316 43.5359 48.8346 43.5307 48.8383 43.5258C48.8527 43.5066 48.8667 43.487 48.8793 43.4668C48.8816 43.4632 48.8832 43.4594 48.8854 43.4557C48.8985 43.4338 48.911 43.4118 48.922 43.3891C48.9232 43.3865 48.9241 43.3838 48.9253 43.3814C48.9364 43.3575 48.9469 43.3332 48.9556 43.3084C48.9567 43.3054 48.9573 43.3023 48.9584 43.2994C48.9667 43.275 48.9741 43.2504 48.98 43.2253C48.9816 43.2182 48.9823 43.211 48.9838 43.2039C48.988 43.1827 48.9924 43.1617 48.9948 43.14C48.9982 43.111 49 43.0817 49 43.0523V0.878618C49 0.393269 48.5429 0 47.9792 0H1.0207C0.457063 0 0 0.393269 0 0.878618V54.1814C0 54.6668 0.457062 55.0601 1.02084 55.0601H35.0487C35.0829 55.0601 35.1169 55.0585 35.1507 55.0556C35.176 55.0534 35.2007 55.0498 35.2254 55.046C35.2334 55.0448 35.2416 55.0442 35.2496 55.043C35.2787 55.0379 35.3072 55.0314 35.3354 55.0244C35.3389 55.0235 35.3427 55.0229 35.3463 55.022C35.3746 55.0146 35.4021 55.0058 35.4291 54.9964C35.4328 54.9952 35.4365 54.9942 35.4402 54.993C35.4659 54.9838 35.4907 54.9734 35.5153 54.9625C35.5203 54.9601 35.5256 54.9584 35.5305 54.956C35.553 54.9457 35.5745 54.9341 35.5959 54.9224C35.6027 54.9188 35.6098 54.9155 35.6164 54.9116C35.6363 54.9002 35.6552 54.8876 35.674 54.875C35.6815 54.8699 35.6894 54.8655 35.6967 54.8603C35.7197 54.844 35.7417 54.8267 35.7629 54.8089C35.7653 54.8067 35.7682 54.805 35.7706 54.8028L48.7012 43.6736C48.7033 43.6719 48.7049 43.67 48.707 43.6683C48.7283 43.6495 48.7489 43.6303 48.7683 43.6099C48.7734 43.6044 48.7779 43.5984 48.7829 43.5929ZM2.04167 1.75724H46.9585V42.1737H35.0487C34.4849 42.1737 34.0279 42.5669 34.0279 43.0523V53.3028H2.04167V1.75724ZM45.5149 43.9309L36.0695 52.0603V43.9309H45.5149Z" fill="#003B7E"/>
<path d="M20.2415 11.1289H39.8127C40.3764 11.1289 40.8335 10.7357 40.8335 10.2505C40.8335 9.76525 40.3764 9.37207 39.8127 9.37207H20.2415C19.6778 9.37207 19.2207 9.76525 19.2207 10.2505C19.2207 10.7357 19.6778 11.1289 20.2415 11.1289Z" fill="#003B7E"/>
<path d="M11.1884 13.2147C11.3876 13.3862 11.649 13.4719 11.9102 13.4719C12.1714 13.4719 12.4327 13.3862 12.632 13.2147L18.0765 8.52868C18.4752 8.18543 18.4752 7.6292 18.0765 7.28607C17.6778 6.94306 17.0314 6.94306 16.6329 7.28607L11.9102 11.3508L10.5903 10.2148C10.1916 9.8718 9.5452 9.8718 9.14666 10.2148C8.74799 10.5581 8.74799 11.1143 9.14666 11.4574L11.1884 13.2147Z" fill="#003B7E"/>
<path d="M17.6943 18.4509C17.6943 18.9363 18.1514 19.3296 18.7152 19.3296H39.8124C40.3762 19.3296 40.8333 18.9363 40.8333 18.4509C40.8333 17.9656 40.3762 17.5723 39.8124 17.5723H18.7152C18.1514 17.5723 17.6943 17.9656 17.6943 18.4509Z" fill="#003B7E"/>
<path d="M14.6333 15.2292H9.18881C8.62504 15.2292 8.16797 15.6225 8.16797 16.1078V20.7935C8.16797 21.2789 8.62504 21.6721 9.18881 21.6721H14.6333C15.1971 21.6721 15.6542 21.2789 15.6542 20.7935V16.1078C15.6542 15.6225 15.1971 15.2292 14.6333 15.2292ZM13.6125 19.915H10.2097V16.9864H13.6125V19.915Z" fill="#003B7E"/>
<path d="M39.8124 25.7727H18.7152C18.1514 25.7727 17.6943 26.1659 17.6943 26.6512C17.6943 27.1366 18.1514 27.5298 18.7152 27.5298H39.8124C40.3762 27.5298 40.8333 27.1366 40.8333 26.6512C40.8333 26.1659 40.3762 25.7727 39.8124 25.7727Z" fill="#003B7E"/>
<path d="M14.6333 23.4297H9.18881C8.62504 23.4297 8.16797 23.8229 8.16797 24.3083V28.994C8.16797 29.4793 8.62504 29.8726 9.18881 29.8726H14.6333C15.1971 29.8726 15.6542 29.4793 15.6542 28.994V24.3083C15.6542 23.8229 15.1971 23.4297 14.6333 23.4297ZM13.6125 28.1154H10.2097V25.1868H13.6125V28.1154Z" fill="#003B7E"/>
<path d="M39.8124 33.9729H18.7152C18.1514 33.9729 17.6943 34.3662 17.6943 34.8517C17.6943 35.3371 18.1514 35.7305 18.7152 35.7305H39.8124C40.3762 35.7305 40.8333 35.3371 40.8333 34.8517C40.8333 34.3662 40.3762 33.9729 39.8124 33.9729Z" fill="#003B7E"/>
<path d="M14.6333 31.6304H9.18881C8.62504 31.6304 8.16797 32.0236 8.16797 32.509V37.1949C8.16797 37.6802 8.62504 38.0735 9.18881 38.0735H14.6333C15.1971 38.0735 15.6542 37.6802 15.6542 37.1949V32.509C15.6542 32.0236 15.1971 31.6304 14.6333 31.6304ZM13.6125 36.3163H10.2097V33.3876H13.6125V36.3163Z" fill="#003B7E"/>
<path d="M30.9651 42.1733H18.7152C18.1514 42.1733 17.6943 42.5666 17.6943 43.0519C17.6943 43.5372 18.1514 43.9304 18.7152 43.9304H30.9651C31.5289 43.9304 31.986 43.5372 31.986 43.0519C31.986 42.5666 31.5289 42.1733 30.9651 42.1733Z" fill="#003B7E"/>
<path d="M14.6333 39.8308H9.18881C8.62504 39.8308 8.16797 40.2241 8.16797 40.7094V45.3951C8.16797 45.8804 8.62504 46.2737 9.18881 46.2737H14.6333C15.1971 46.2737 15.6542 45.8804 15.6542 45.3951V40.7094C15.6542 40.2241 15.1971 39.8308 14.6333 39.8308ZM13.6125 44.5165H10.2097V41.588H13.6125V44.5165Z" fill="#003B7E"/>
</svg>
