<svg width="50" height="55" viewBox="0 0 50 55" fill="none" xmlns="http://www.w3.org/2000/svg">
<path d="M39.1684 39.0654L34.0626 37.3638L32.2297 33.6978C33.881 32.0171 35.0275 29.7932 35.4141 27.4737L35.6427 26.1035H37.5977C39.3746 26.1035 40.8203 24.6578 40.8203 22.8809V16.1133C40.8203 7.22842 33.5919 0 24.707 0C15.7994 0 8.59375 7.20769 8.59375 16.1133V22.8809C8.59375 24.2812 9.4919 25.4753 10.7422 25.9188V27.1777C10.7422 28.9547 12.1879 30.4004 13.9648 30.4004H14.9082C15.3739 31.412 15.9766 32.3489 16.7101 33.1906C16.8622 33.3654 17.0209 33.535 17.1834 33.6999L15.3514 37.3638L10.2456 39.0655C4.30891 41.045 0 47.2947 0 53.9258C0 54.5191 0.480928 55 1.07422 55H48.3398C48.933 55 49.4141 54.5191 49.4141 53.9258C49.4141 47.2947 45.1053 41.045 39.1684 39.0654ZM38.6719 22.8809C38.6719 23.4732 38.19 23.9551 37.5977 23.9551H35.9582C36.2313 21.8399 36.4132 19.5891 36.4864 17.3723C36.4885 17.3097 36.4902 17.2489 36.4922 17.1875H38.6719V22.8809ZM11.8164 23.9551C11.2241 23.9551 10.7422 23.4732 10.7422 22.8809V17.1875H12.9226C12.9262 17.2995 12.9299 17.4121 12.9341 17.5254C12.9342 17.5293 12.9345 17.5331 12.9346 17.5369C12.9346 17.5373 12.9346 17.5376 12.9346 17.5379C13.0098 19.6941 13.1894 21.8865 13.4562 23.955H11.8164V23.9551ZM13.9648 28.252C13.3725 28.252 12.8906 27.7701 12.8906 27.1777V26.1035H13.7713L13.9999 27.4741C14.0435 27.7346 14.0971 27.9941 14.1591 28.252H13.9648ZM12.8925 15.0391H10.783C11.3271 7.83954 17.3354 2.14844 24.707 2.14844C32.0459 2.14844 38.0806 7.83879 38.6309 15.0391H36.5217C36.4444 9.10647 31.6133 4.29688 25.6686 4.29688H23.7457C17.8011 4.29688 12.9697 9.10647 12.8925 15.0391ZM23.7456 6.44531H25.6685C30.4819 6.44531 34.3778 10.3824 34.375 15.1905C34.375 15.5286 34.3723 15.8229 34.3666 16.0907C34.3666 16.0942 34.3665 16.0977 34.3665 16.1012L33.0229 15.9093C29.3727 15.3881 25.9262 13.6648 23.3182 11.0568C23.1166 10.8554 22.8435 10.7422 22.5586 10.7422C19.6737 10.7422 16.9121 12.0566 15.0865 14.2772C15.5364 9.90312 19.2342 6.44531 23.7456 6.44531ZM16.3861 28.252C15.8484 26.4631 15.2331 21.1994 15.0971 17.8263L16.5429 15.8985C17.8707 14.1287 19.9365 13.029 22.1341 12.9028C25.0255 15.6545 28.7662 17.4716 32.7191 18.036L34.3006 18.262C34.1949 20.5055 33.9788 22.7569 33.6693 24.8275C33.6692 24.8281 33.6691 24.8288 33.669 24.8296C33.5706 25.4953 33.4931 25.9237 33.295 27.1203C32.7261 30.5325 30.18 33.6182 26.8188 34.4586C25.4356 34.8039 23.9783 34.8038 22.5958 34.4586C20.4971 33.9339 18.5727 32.4818 17.3308 30.4004H19.5207C19.9641 31.6507 21.1581 32.5488 22.5586 32.5488H24.707C26.4875 32.5488 27.9297 31.1068 27.9297 29.3262C27.9297 27.5492 26.484 26.1035 24.707 26.1035H22.5586C21.127 26.1035 19.9506 27.0282 19.5189 28.252H16.3861ZM22.4683 36.6326C23.2051 36.7878 23.9563 36.8672 24.707 36.8672C25.2947 36.8672 25.8825 36.818 26.4637 36.7226L24.5656 38.73L22.4683 36.6326ZM23.0887 40.2917L19.6815 43.8948C18.7435 42.0994 17.9375 40.2308 17.2764 38.3178L18.5559 35.7588L23.0887 40.2917ZM30.676 35.3949L32.1374 38.3177C31.4753 40.2339 30.6691 42.1031 29.732 43.8964L26.0853 40.2497L30.676 35.3949ZM21.4844 29.3262C21.4844 28.7331 21.9654 28.252 22.5586 28.252H24.707C25.2994 28.252 25.7812 28.7338 25.7812 29.3262C25.7812 29.9194 25.3001 30.4004 24.707 30.4004H22.5586C21.9663 30.4004 21.4844 29.9185 21.4844 29.3262ZM2.19141 52.8516C2.61712 47.53 6.15871 42.693 10.925 41.1036L15.4468 39.5967C16.2753 41.8874 17.3016 44.114 18.5044 46.2289C18.5064 46.2325 18.5084 46.2362 18.5104 46.2397C18.5104 46.2399 18.5105 46.2399 18.5105 46.24C19.3893 47.7857 20.3785 49.2961 21.4509 50.7301L22.7724 52.8516H2.19141ZM24.707 51.894L23.2502 49.5551C23.2338 49.5289 23.2164 49.5034 23.198 49.4787C22.3281 48.3184 21.5166 47.1048 20.7775 45.8627L24.6085 41.8114L28.6452 45.8481C27.9012 47.0992 27.087 48.3178 26.2163 49.4785C26.1637 49.5487 26.2383 49.4381 24.707 51.894ZM26.6417 52.8516L27.9631 50.7302C29.0402 49.2907 30.0364 47.7681 30.9241 46.2043C30.9294 46.1948 30.9345 46.1852 30.9399 46.1757C30.9405 46.1745 30.9412 46.1735 30.9418 46.1723C32.1293 44.0776 33.1449 41.8704 33.9672 39.5967L38.4889 41.1036C43.2554 42.693 46.7969 47.53 47.2227 52.8516H26.6417Z" fill="#003B7E"/>
</svg>
