<svg width="69" height="56" viewBox="0 0 69 56" fill="none" xmlns="http://www.w3.org/2000/svg">
<path d="M65.4249 19.2492V4.33127C65.4249 1.94304 63.2678 0 60.6165 0H4.80847C2.15696 0 0 1.94304 0 4.33127V34.7212C0 37.1094 2.15711 39.0525 4.80847 39.0525H20.6248L18.8142 40.8078H16.1017C15.4851 40.8078 14.9851 41.2581 14.9851 41.8135C14.9851 42.3689 15.4851 42.8192 16.1017 42.8192H31.6378V52.5188C31.6378 53.92 32.9033 55.0601 34.459 55.0601H46.4618C48.0174 55.0601 49.2831 53.9201 49.2831 52.5188V50.476H64.3099C66.4188 50.476 68.1343 48.93 68.1343 47.0298V22.5454C68.1343 20.9948 66.9919 19.6806 65.4249 19.2492ZM65.9013 22.5454V22.8201H40.2229V22.5454C40.2229 21.7542 40.9375 21.1106 41.8158 21.1106H64.3099C65.1875 21.1107 65.9013 21.7544 65.9013 22.5454ZM46.4618 31.0422H40.2229V24.8316H65.9013V44.7435H49.2831V33.5833C49.2831 32.1821 48.0174 31.0422 46.4618 31.0422ZM47.05 34.9053H33.871V33.5834C33.871 33.2913 34.1348 33.0536 34.4591 33.0536H46.462C46.7862 33.0536 47.0502 33.2912 47.0502 33.5834L47.05 34.9053ZM63.1917 5.33698V19.0991H41.8157C39.706 19.0991 37.9897 20.6451 37.9897 22.5454V31.0422H34.4588C32.9045 31.0422 31.6399 32.1804 31.6379 33.5801H2.23289V5.33698H63.1917ZM33.8707 36.9167H47.0497V49.1858H33.8707V36.9167ZM4.80832 2.01142H60.6163C61.6361 2.01142 62.5166 2.54941 62.9335 3.32555H2.49102C2.90801 2.54941 3.78857 2.01142 4.80832 2.01142ZM2.42269 35.5916H31.6378V37.0412H4.80832C3.73006 37.041 2.80573 36.4404 2.42269 35.5916ZM21.8623 40.8078L23.6728 39.0525H31.6378V40.8078H21.8623ZM46.4617 53.0488H34.4588C34.1346 53.0488 33.8707 52.8111 33.8707 52.519V51.1972H47.0497V52.519C47.0499 52.811 46.7859 53.0488 46.4617 53.0488ZM64.3098 48.4647H49.2829V46.755H65.9012V47.0299C65.9012 47.8209 65.1873 48.4647 64.3098 48.4647Z" fill="#003B7E"/>
</svg>
