<svg width="59" height="55" viewBox="0 0 59 55" fill="none" xmlns="http://www.w3.org/2000/svg">
<path d="M3.92856 47.1428H5.89285V45.1785H3.92856C2.84354 45.1785 1.96428 44.2992 1.96428 43.2142V3.92856C1.96428 2.84354 2.84354 1.96428 3.92856 1.96428H47.1428C48.2278 1.96428 49.1071 2.84354 49.1071 3.92856V5.89285H51.0713V3.92856C51.0713 1.75901 49.3123 0 47.1428 0H3.92856C1.75901 0 0 1.75901 0 3.92856V43.2142C0 45.3838 1.75901 47.1428 3.92856 47.1428Z" fill="#003B7E"/>
<path d="M7.85742 51.0714C7.85742 53.2409 9.61644 54.9999 11.786 54.9999H55.0002C57.1697 54.9999 58.9288 53.2409 58.9288 51.0714V11.7857C58.9288 9.61619 57.1697 7.85718 55.0002 7.85718H11.786C9.61644 7.85718 7.85742 9.61619 7.85742 11.7857V51.0714ZM9.8217 11.7857C9.8217 10.7007 10.701 9.82146 11.786 9.82146H55.0002C56.0852 9.82146 56.9645 10.7007 56.9645 11.7857V51.0714C56.9645 52.1564 56.0852 53.0357 55.0002 53.0357H11.786C10.701 53.0357 9.8217 52.1564 9.8217 51.0714V11.7857Z" fill="#003B7E"/>
<path d="M11.7852 11.7856H13.7494V13.7499H11.7852V11.7856Z" fill="#003B7E"/>
<path d="M15.7148 11.7856H17.6791V13.7499H15.7148V11.7856Z" fill="#003B7E"/>
<path d="M19.6426 11.7856H21.6069V13.7499H19.6426V11.7856Z" fill="#003B7E"/>
<path d="M11.7852 15.7144H54.9994V17.6786H11.7852V15.7144Z" fill="#003B7E"/>
<path d="M11.7852 20.6248H19.6423V22.589H11.7852V20.6248Z" fill="#003B7E"/>
<path d="M11.7852 24.5537H17.678V26.518H11.7852V24.5537Z" fill="#003B7E"/>
<path d="M33.3926 28.4824C29.5954 28.4824 26.5176 31.5602 26.5176 35.3574C26.5176 39.1546 29.5954 42.2324 33.3926 42.2324C37.1898 42.2324 40.2676 39.1546 40.2676 35.3574C40.2631 31.5624 37.1876 28.4868 33.3926 28.4824ZM33.3926 40.2681C30.6806 40.2681 28.4819 38.0693 28.4819 35.3574C28.4819 32.6455 30.6806 30.4467 33.3926 30.4467C36.1045 30.4467 38.3033 32.6455 38.3033 35.3574C38.2998 38.0681 36.1033 40.2647 33.3926 40.2681Z" fill="#003B7E"/>
<path d="M49.1072 32.4109C49.1072 31.8683 48.6677 31.4288 48.1251 31.4288H45.5293C45.3213 30.7835 45.062 30.1557 44.7524 29.5529L46.588 27.7185C46.9711 27.3347 46.9711 26.7133 46.588 26.3295L42.4208 22.1623C42.037 21.7792 41.4156 21.7792 41.0318 22.1623L39.1974 23.9969C38.5936 23.6885 37.9663 23.4292 37.3215 23.221V20.6252C37.3215 20.0826 36.882 19.6431 36.3394 19.6431H30.4465C29.9039 19.6431 29.4644 20.0826 29.4644 20.6252V23.221C28.8196 23.4292 28.1923 23.6885 27.5885 23.9969L25.7541 22.1623C25.3703 21.7792 24.7489 21.7792 24.3651 22.1623L20.1979 26.3295C19.8149 26.7133 19.8149 27.3347 20.1979 27.7185L22.0325 29.5529C21.9505 29.7137 21.8715 29.875 21.7968 30.038C21.5896 30.4908 21.4094 30.9549 21.2567 31.4288H18.6609C18.1182 31.4288 17.6787 31.8683 17.6787 32.4109V38.3037C17.6787 38.8464 18.1182 39.2859 18.6609 39.2859H21.2567C21.4646 39.9312 21.7239 40.559 22.0335 41.1618L20.1979 42.9962C19.8149 43.3799 19.8149 44.0014 20.1979 44.3852L24.3651 48.5524C24.7489 48.9354 25.3703 48.9354 25.7541 48.5524L27.5885 46.7177C28.1923 47.0261 28.8196 47.2854 29.4644 47.4936V50.0894C29.4644 50.6321 29.9039 51.0716 30.4465 51.0716H36.3394C36.882 51.0716 37.3215 50.6321 37.3215 50.0894V47.4936C37.9663 47.2854 38.5936 47.0261 39.1974 46.7177L41.0318 48.5524C41.4156 48.9354 42.037 48.9354 42.4208 48.5524L46.588 44.3852C46.9711 44.0014 46.9711 43.3799 46.588 42.9962L44.7524 41.1618C45.062 40.559 45.3213 39.9312 45.5293 39.2859H48.1251C48.6677 39.2859 49.1072 38.8464 49.1072 38.3037V32.4109ZM47.1429 37.3216H44.7917C44.3438 37.3216 43.9529 37.6248 43.841 38.0582C43.59 39.033 43.2033 39.9685 42.6919 40.8357C42.4643 41.2212 42.5269 41.7123 42.8431 42.029L44.5037 43.6905L41.7262 46.4693L40.0647 44.8075C39.7477 44.4907 39.2566 44.4284 38.8709 44.6562C38.0036 45.1677 37.0686 45.5546 36.0939 45.8053C35.6605 45.9173 35.3572 46.3082 35.3572 46.7561V49.1073H31.4287V46.7561C31.4287 46.3082 31.1254 45.9173 30.6921 45.8053C29.7173 45.5546 28.7823 45.1677 27.9151 44.6562C27.5293 44.4284 27.0383 44.4907 26.7213 44.8075L25.0597 46.4693L22.2823 43.6905L23.9428 42.029C24.2591 41.7123 24.3217 41.2212 24.0941 40.8357C23.5826 39.9685 23.1959 39.033 22.945 38.0582C22.833 37.6248 22.4421 37.3216 21.9942 37.3216H19.643V33.393H21.9942C22.4421 33.393 22.833 33.0898 22.945 32.6564C23.1036 32.0382 23.3174 31.4361 23.5836 30.8564C23.737 30.5203 23.9074 30.1925 24.0941 29.8743C24.3209 29.4885 24.2588 28.9982 23.9428 28.6817L22.2823 27.0202L25.0597 24.2415L26.7213 25.9037C27.0383 26.2205 27.5293 26.2823 27.9151 26.0542C28.7823 25.5433 29.7173 25.1558 30.6921 24.9051C31.1254 24.7934 31.4287 24.402 31.4287 23.9549V21.6073H35.3572V23.9586C35.3572 24.4065 35.6605 24.7973 36.0939 24.9093C37.0686 25.16 38.0036 25.547 38.8709 26.0584C39.2566 26.2863 39.7477 26.2239 40.0647 25.9072L41.7262 24.2454L44.5037 27.0241L42.8431 28.6856C42.5269 29.0024 42.4643 29.4934 42.6919 29.8789C43.2033 30.7462 43.59 31.6817 43.841 32.6564C43.9529 33.0898 44.3438 33.393 44.7917 33.393H47.1429V37.3216Z" fill="#003B7E"/>
</svg>
