<svg width="59" height="55" viewBox="0 0 59 55" fill="none" xmlns="http://www.w3.org/2000/svg">
<path d="M52.9988 34.7307V14.8981C52.9988 14.2822 52.3722 13.8566 51.6064 13.8566H46.2178C45.452 13.8566 44.7837 14.2822 44.7837 14.8981V32.7934C43.8925 32.8158 43.0014 32.9054 42.1381 33.0734V20.7437C42.1381 20.1278 41.4837 19.6799 40.7179 19.6799H35.3293C34.5635 19.6799 33.923 20.1166 33.923 20.7437V37.4632C32.266 39.3334 31.3749 41.5843 31.3888 43.8912C31.3888 50.028 37.5711 55.0001 45.1875 55.0001C52.8178 55.0001 59 50.028 59 43.9024C59 40.2292 56.7583 36.8025 52.9988 34.7307ZM47.5685 16.0963H50.214V33.5437C49.3647 33.2749 48.4735 33.0734 47.5685 32.9614V16.0963ZM36.7078 21.9196H39.3533V33.8461C38.4204 34.1932 37.5293 34.6188 36.7078 35.1227V21.9196ZM54.6836 48.4042C52.6925 51.103 49.0862 52.7492 45.2014 52.7492C39.1166 52.7492 34.1875 48.7737 34.1875 43.8912C34.1875 40.3076 36.8749 37.0712 40.9964 35.705C41.1634 35.6826 41.3166 35.6266 41.4558 35.5594C42.6533 35.2011 43.9343 35.0219 45.2153 35.0219C45.5077 35.0219 45.7862 35.0331 46.0786 35.0555H46.0925C47.7634 35.1563 49.3925 35.5706 50.8267 36.2649C56.0619 38.7622 57.7886 44.1935 54.6836 48.4042Z" fill="#003B7E"/>
<path d="M45.2853 43.3386C44.3106 43.3386 43.5309 42.7115 43.5309 41.9276C43.5309 41.1437 44.2967 40.5165 45.2714 40.5053C46.246 40.5053 47.0258 41.1437 47.0258 41.9164C47.0258 42.5323 47.6523 43.0362 48.4182 43.0362C49.1979 43.0362 49.8245 42.5435 49.8384 41.9164C49.8384 40.4157 48.6966 39.0607 46.9562 38.512V37.5825C46.9562 36.9666 46.3296 36.4626 45.5638 36.4626C44.7979 36.4626 44.1714 36.9666 44.1714 37.5825V38.3888C41.7486 38.8927 40.2866 40.8861 40.9132 42.8346C41.4144 44.4472 43.2106 45.5671 45.2714 45.5671C46.2321 45.5671 47.0118 46.2054 47.0118 46.9781C47.0118 47.7508 46.2182 48.378 45.2574 48.378C44.2967 48.378 43.5169 47.7396 43.5169 46.9669C43.5169 46.351 42.8904 45.8471 42.1245 45.8471C41.3587 45.8471 40.7461 46.3398 40.76 46.9557V46.9669C40.7739 48.6243 42.1663 50.0801 44.1574 50.4945V50.9984C44.1574 51.6143 44.784 52.1183 45.5498 52.1183C46.3156 52.1183 46.9422 51.6143 46.9422 50.9984V50.3825C49.2814 49.6434 50.4232 47.5269 49.5182 45.6567C48.8359 44.2569 47.1511 43.3386 45.2853 43.3386Z" fill="#003B7E"/>
<path d="M18.9536 28.9933H13.5233C12.7574 28.9933 12.1309 29.4973 12.1309 30.1132V47.6949C12.1309 48.3108 12.7574 48.8147 13.5233 48.8147H18.9536C19.7194 48.8147 20.346 48.3108 20.346 47.6949V30.1132C20.346 29.4973 19.7194 28.9933 18.9536 28.9933ZM17.5612 46.687H14.9157V31.233H17.5612V46.687Z" fill="#003B7E"/>
<path d="M29.9536 26.4171H24.5233C23.7574 26.4171 23.1309 26.9211 23.1309 27.537V47.8064C23.1309 48.4223 23.7574 48.9263 24.5233 48.9263H29.9536C30.7194 48.9263 31.346 48.4223 31.346 47.8064V27.537C31.346 26.9211 30.7194 26.4171 29.9536 26.4171ZM28.5612 46.6866H25.9157V28.6568H28.5612V46.6866Z" fill="#003B7E"/>
<path d="M7.95358 38.624H2.52325C1.75744 38.624 1.13086 39.1279 1.13086 39.7438V47.6947C1.13086 48.3106 1.75744 48.8145 2.52325 48.8145H7.95358C8.7194 48.8145 9.34597 48.3106 9.34597 47.6947V39.7438C9.34597 39.1279 8.7194 38.624 7.95358 38.624ZM6.56119 46.6868H3.91564V40.8636H6.56119V46.6868Z" fill="#003B7E"/>
<path d="M52.8588 0L43.3348 0.0111986C42.569 0 41.9424 0.503937 41.9285 1.11986C41.9146 1.73578 42.5411 2.23972 43.307 2.25092C43.3209 2.25092 43.3209 2.25092 43.3348 2.25092L49.5031 2.23972L34.3956 14.3454L29.1185 10.1347C28.8539 9.93316 28.4919 9.83238 28.1299 9.84358C27.7678 9.83238 27.4058 9.93316 27.1413 10.1347L0.407276 31.6361C-0.135759 32.0728 -0.135759 32.7783 0.407276 33.2039C0.671831 33.4166 1.01993 33.5286 1.39588 33.5286C1.77182 33.5286 2.11992 33.4166 2.38448 33.2039L28.1438 12.4864L33.421 16.7643C33.6716 16.9883 34.0336 17.1115 34.4096 17.1227C34.7855 17.1115 35.1336 16.9771 35.3982 16.7643L51.4664 3.82992L51.4525 8.8133C51.4525 9.44043 52.0651 9.94436 52.8449 9.96676C53.6246 9.95556 54.2373 9.44043 54.2373 8.8133L54.2512 1.13106C54.2512 0.515136 53.6246 0 52.8588 0Z" fill="#003B7E"/>
</svg>
